<svg width="30" height="31" viewBox="0 0 30 31" fill="none" xmlns="http://www.w3.org/2000/svg">
<path d="M9.59997 2.22729C5.29946 2.22729 1.79997 5.72678 1.79997 10.0273L1.79997 20.8273C1.79997 25.1278 5.29946 28.6273 9.59997 28.6273L20.4 28.6273C24.7005 28.6273 28.2 25.1278 28.2 20.8273L28.2 10.0273C28.2 5.72678 24.7005 2.22729 20.4 2.22729L9.59997 2.22729ZM9.59997 3.42729L20.4 3.42729C24.0519 3.42729 27 6.3754 27 10.0273L27 20.8273C27 24.4792 24.0519 27.4273 20.4 27.4273L9.59997 27.4273C5.94808 27.4273 2.99997 24.4792 2.99997 20.8273L2.99997 10.0273C2.99997 6.3754 5.94808 3.42729 9.59997 3.42729ZM22.2 7.02729C21.8817 7.02729 21.5765 7.15372 21.3514 7.37877C21.1264 7.60381 21 7.90903 21 8.22729C21 8.54555 21.1264 8.85078 21.3514 9.07582C21.5765 9.30087 21.8817 9.42729 22.2 9.42729C22.5182 9.42729 22.8235 9.30087 23.0485 9.07582C23.2735 8.85078 23.4 8.54555 23.4 8.22729C23.4 7.90903 23.2735 7.60381 23.0485 7.37877C22.8235 7.15372 22.5182 7.02729 22.2 7.02729ZM15 8.82729C11.362 8.82729 8.39997 11.7893 8.39997 15.4273C8.39997 19.0653 11.362 22.0273 15 22.0273C18.6379 22.0273 21.6 19.0653 21.6 15.4273C21.6 11.7893 18.6379 8.82729 15 8.82729ZM15 10.0273C17.9894 10.0273 20.4 12.4378 20.4 15.4273C20.4 18.4167 17.9894 20.8273 15 20.8273C12.0105 20.8273 9.59997 18.4167 9.59997 15.4273C9.59997 12.4378 12.0105 10.0273 15 10.0273Z" fill="white"/>
</svg>
