<svg width="28" height="29" viewBox="0 0 28 29" fill="none" xmlns="http://www.w3.org/2000/svg">
<path fill-rule="evenodd" clip-rule="evenodd" d="M14.8642 22.2709L17.955 19.1801C18.2977 18.8375 18.8367 18.7898 19.2342 19.067L23.6544 22.1499C24.165 22.506 24.2296 23.237 23.7895 23.6772L23.0086 24.4581C22.2983 25.1683 21.2814 25.476 20.3221 25.1783C17.9786 24.4513 13.4062 22.6543 9.63867 18.8868C5.87118 15.1194 4.07425 10.547 3.34718 8.20344C3.04955 7.24409 3.35718 6.22717 4.06744 5.51691L4.84831 4.73604C5.28848 4.29587 6.01953 4.36051 6.37563 4.87109L9.45851 9.29133C9.73572 9.6888 9.68806 10.2278 9.3454 10.5705L6.25461 13.6613" fill="white"/>
</svg>
