<svg width="6" height="13" viewBox="0 0 6 13" fill="none" xmlns="http://www.w3.org/2000/svg">
<path d="M2.08189 0.0622778H3.4228V9.42591C3.4228 9.96379 3.32999 10.4297 3.14439 10.8236C2.96257 11.2176 2.68605 11.5225 2.31484 11.7384C1.94742 11.9543 1.4834 12.0623 0.922796 12.0623C0.877342 12.0623 0.831887 12.0623 0.786432 12.0623C0.740978 12.0623 0.695523 12.0623 0.650069 12.0623V10.8123C0.695523 10.8123 0.73719 10.8123 0.775069 10.8123C0.812948 10.8123 0.854614 10.8123 0.900069 10.8123C1.30916 10.8123 1.6084 10.6911 1.7978 10.4486C1.98719 10.21 2.08189 9.8691 2.08189 9.42591V0.0622778ZM0.240978 4.2441V3.19864H5.24098V4.2441H0.240978Z" fill="#111111"/>
</svg>
