<svg width="30" height="31" viewBox="0 0 30 31" fill="none" xmlns="http://www.w3.org/2000/svg">
<g clip-path="url(#clip0_1_1284)">
<path d="M20.5312 3.7085C16.9429 3.7085 14.025 6.62646 14.025 10.2147C14.025 10.4304 14.0789 10.6413 14.1 10.8522C9.66325 10.428 5.73981 8.29053 3.07497 5.021C2.95075 4.86396 2.75856 4.77959 2.557 4.79365C2.35778 4.80771 2.17966 4.92256 2.08122 5.096C1.52106 6.05928 1.19997 7.16787 1.19997 8.3585C1.19997 9.7999 1.71559 11.1194 2.51247 12.2022C2.35778 12.1343 2.18903 12.0968 2.04372 12.0147C1.85856 11.9163 1.63591 11.921 1.45544 12.0288C1.27497 12.1366 1.16481 12.3312 1.16247 12.5397V12.6147C1.16247 14.8249 2.30622 16.7444 3.99372 17.921C3.97497 17.9187 3.95622 17.9257 3.93747 17.921C3.73122 17.8858 3.52262 17.9585 3.38434 18.1155C3.24606 18.2726 3.20153 18.4905 3.26247 18.6897C3.93278 20.7733 5.64372 22.3647 7.76247 22.946C6.07497 23.9491 4.11794 24.5397 2.00622 24.5397C1.54919 24.5397 1.11091 24.5163 0.674968 24.4647C0.393718 24.4272 0.124186 24.5913 0.0304366 24.8585C-0.0656572 25.1257 0.0398116 25.4233 0.281218 25.571C2.98825 27.3077 6.20153 28.3272 9.65622 28.3272C15.2554 28.3272 19.6476 25.9882 22.5937 22.646C25.5398 19.3038 27.075 14.9632 27.075 10.9085C27.075 10.7374 27.0609 10.571 27.0562 10.4022C28.1554 9.56084 29.1375 8.57412 29.9062 7.421C30.0586 7.19834 30.0422 6.90068 29.8664 6.69443C29.6929 6.48818 29.4 6.4249 29.1562 6.53975C28.8468 6.67803 28.4859 6.69209 28.1625 6.80225C28.589 6.23271 28.9547 5.61865 29.175 4.92725C29.25 4.69053 29.1679 4.43037 28.9734 4.27568C28.7789 4.12334 28.507 4.10459 28.2937 4.2335C27.2695 4.84053 26.1351 5.26709 24.9375 5.52725C23.775 4.43975 22.2445 3.7085 20.5312 3.7085ZM20.5312 4.9085C22.0617 4.9085 23.4445 5.5624 24.4125 6.596C24.5578 6.746 24.7711 6.80928 24.975 6.76475C25.7578 6.61006 26.5008 6.38271 27.225 6.08975C26.8078 6.65225 26.2922 7.13271 25.6875 7.496C25.4133 7.62959 25.2843 7.946 25.3851 8.23428C25.4836 8.52021 25.7836 8.68662 26.0812 8.621C26.6812 8.54834 27.2156 8.30459 27.7875 8.15225C27.2742 8.70771 26.7117 9.20928 26.1 9.65225C25.9336 9.77412 25.8422 9.971 25.8562 10.1772C25.8656 10.421 25.875 10.6624 25.875 10.9085C25.875 14.6585 24.4359 18.7296 21.6937 21.8397C18.9515 24.9499 14.925 27.1272 9.65622 27.1272C7.26325 27.1272 5.00387 26.5976 2.96247 25.6647C5.49372 25.4702 7.82809 24.5749 9.71247 23.096C9.90934 22.939 9.98669 22.6765 9.907 22.4374C9.82731 22.1983 9.607 22.0343 9.35622 22.0272C7.37809 21.9921 5.72106 20.8413 4.83747 19.2147C4.87028 19.2147 4.89841 19.2147 4.93122 19.2147C5.52419 19.2147 6.11012 19.1397 6.65622 18.9897C6.91872 18.9124 7.09919 18.6687 7.08981 18.3944C7.08044 18.1202 6.88591 17.8858 6.61872 17.8272C4.48356 17.396 2.88278 15.6569 2.51247 13.496C3.11716 13.7046 3.73591 13.8687 4.40622 13.8897C4.68044 13.9062 4.92887 13.7351 5.01325 13.4749C5.09762 13.2147 4.9945 12.9288 4.76247 12.7835C3.33747 11.8296 2.39997 10.2054 2.39997 8.3585C2.39997 7.67412 2.57809 7.046 2.81247 6.446C5.81247 9.73896 10.0125 11.9257 14.7562 12.1647C14.9437 12.1741 15.1265 12.0968 15.2484 11.9538C15.3703 11.8085 15.4172 11.6163 15.375 11.4335C15.2836 11.0444 15.225 10.6319 15.225 10.2147C15.225 7.27568 17.5922 4.9085 20.5312 4.9085Z" fill="white"/>
</g>
<defs>
<clipPath id="clip0_1_1284">
<rect width="30" height="30" fill="white" transform="translate(-3.05176e-05 0.427246)"/>
</clipPath>
</defs>
</svg>
