<svg width="34" height="35" viewBox="0 0 34 35" fill="none" xmlns="http://www.w3.org/2000/svg">
<path d="M16.5936 6.54724C12.1045 6.54724 7.88903 6.88724 5.6445 7.36271C4.14903 7.70271 2.85544 8.72271 2.5845 10.2872C2.31356 11.9182 2.03997 14.3672 2.03997 17.4272C2.03997 20.4872 2.31091 22.8672 2.65091 24.5672C2.9245 26.0627 4.21544 27.1518 5.71091 27.4918C8.09356 27.9672 12.1709 28.3072 16.66 28.3072C21.149 28.3072 25.2264 27.9672 27.6064 27.4918C29.1045 27.1518 30.3954 26.1318 30.6664 24.5672C30.94 22.8672 31.28 20.4208 31.3464 17.3608C31.3464 14.3008 31.0064 11.8518 30.6664 10.1518C30.3954 8.6563 29.1045 7.56724 27.6064 7.22724C25.2264 6.88724 21.08 6.54724 16.5936 6.54724ZM16.5936 7.90724C21.489 7.90724 25.4309 8.31365 27.3354 8.65365C28.3554 8.92724 29.1709 9.60724 29.3064 10.4918C29.7154 12.6672 29.9864 14.9808 29.9864 17.3608C29.92 20.2827 29.58 22.6627 29.3064 24.3627C29.1045 25.6536 27.7445 26.0627 27.3354 26.2008C24.8864 26.6763 20.8064 27.0136 16.7264 27.0136C12.6464 27.0136 8.49997 26.7427 6.11997 26.2008C5.09997 25.9272 4.2845 25.2472 4.14903 24.3627C3.6045 22.4582 3.39997 19.9427 3.39997 17.4272C3.39997 14.2982 3.67356 11.9872 3.9445 10.5608C4.14903 9.26724 5.57544 8.85818 5.91544 8.72271C8.15997 8.24724 12.309 7.90724 16.5936 7.90724ZM12.92 11.9872L12.92 22.8672L22.44 17.4272L12.92 11.9872ZM14.28 14.3008L19.72 17.4272L14.28 20.5536L14.28 14.3008Z" fill="white"/>
</svg>
